<?xml version="1.0" standalone="no"?>
<!DOCTYPE svg PUBLIC "-//W3C//DTD SVG 20010904//EN"
 "http://www.w3.org/TR/2001/REC-SVG-20010904/DTD/svg10.dtd">
<svg version="1.0" xmlns="http://www.w3.org/2000/svg"
 width="477.000000pt" height="477.000000pt" viewBox="0 0 477.000000 477.000000"
 preserveAspectRatio="xMidYMid meet">

<g transform="translate(0.000000,477.000000) scale(0.100000,-0.100000)"
fill="#000000" stroke="none">
<path d="M2161 4750 c-1120 -109 -2008 -977 -2141 -2095 -16 -128 -16 -412 0
-540 87 -736 506 -1383 1140 -1765 266 -161 566 -267 885 -316 148 -22 483
-25 625 -5 556 76 1028 314 1410 707 353 364 560 780 647 1299 26 156 26 543
0 700 -75 450 -249 836 -531 1174 -86 104 -278 287 -387 368 -276 207 -608
360 -929 428 -210 44 -521 64 -719 45z m440 -170 c565 -57 1100 -339 1461
-769 279 -334 455 -738 508 -1171 13 -109 13 -401 0 -510 -82 -670 -461 -1268
-1023 -1617 -940 -582 -2153 -386 -2865 462 -357 426 -546 1012 -504 1563 82
1062 883 1907 1932 2037 131 16 356 18 491 5z"/>
<path d="M1230 3711 c-95 -31 -177 -108 -206 -193 -22 -66 -15 -177 13 -233
42 -81 154 -165 221 -165 l22 0 0 -214 0 -214 -32 -7 c-87 -19 -166 -82 -210
-165 -33 -64 -33 -205 0 -267 66 -125 210 -192 344 -160 l56 14 326 -326 327
-327 -11 -52 c-27 -124 46 -264 169 -324 54 -26 148 -35 208 -19 96 26 190
121 214 217 l11 44 228 0 228 0 11 -44 c23 -93 117 -190 209 -216 102 -28 206
-3 286 71 71 64 100 130 99 224 0 240 -264 384 -460 252 -62 -42 -109 -105
-129 -173 l-15 -54 -228 0 -227 0 -13 50 c-13 49 -55 118 -95 153 -12 10 -46
30 -76 45 -116 56 -265 25 -347 -74 l-38 -44 -312 312 -312 312 39 42 c49 54
68 91 81 160 27 146 -69 297 -217 340 l-54 15 0 213 0 213 38 6 c55 9 141 66
179 118 40 57 67 154 58 212 -16 102 -84 195 -174 239 -49 24 -164 34 -211 19z
m164 -63 c24 -7 61 -32 88 -58 138 -134 75 -365 -113 -410 -115 -28 -239 35
-283 142 -34 79 -11 203 47 267 56 60 169 86 261 59z m37 -1049 c93 -51 143
-163 120 -266 -40 -176 -250 -250 -396 -138 -112 85 -111 296 1 381 78 60 192
69 275 23z m1055 -1027 c87 -45 134 -122 134 -219 0 -218 -255 -325 -412 -173
-132 128 -81 349 94 406 55 18 134 11 184 -14z m1072 -1 c178 -92 171 -359
-12 -442 -54 -25 -148 -25 -202 0 -209 95 -181 404 41 462 44 12 131 1 173
-20z"/>
<path d="M2276 3705 c-78 -30 -134 -83 -174 -165 -70 -146 -5 -323 146 -397
45 -22 70 -27 128 -28 63 0 80 4 141 36 l69 35 240 -259 c131 -142 265 -288
298 -323 l59 -65 -19 -42 c-29 -63 -26 -177 5 -241 31 -63 84 -116 147 -147
39 -19 65 -24 129 -24 94 0 150 23 214 86 63 64 86 120 86 214 0 94 -23 150
-86 214 -64 64 -120 86 -214 86 -87 0 -142 -21 -198 -73 l-27 -26 -24 24 c-13
14 -128 140 -256 280 -128 140 -251 274 -274 297 l-40 43 23 47 c33 68 40 174
15 244 -24 67 -83 133 -148 166 -63 33 -179 41 -240 18z m204 -66 c60 -27 88
-54 116 -114 44 -93 28 -203 -39 -273 -120 -125 -325 -96 -398 55 -31 64 -32
161 -1 220 25 48 85 102 133 119 53 20 138 16 189 -7z m1044 -1021 c55 -16
138 -99 154 -154 58 -196 -116 -370 -312 -312 -55 16 -138 99 -154 154 -29 98
-8 178 63 249 70 71 152 91 249 63z"/>
<path d="M3347 3706 c-217 -81 -275 -349 -110 -508 57 -56 124 -82 208 -82
119 0 215 60 273 169 22 42 27 63 27 130 0 68 -4 89 -28 137 -30 62 -75 106
-140 140 -53 27 -175 35 -230 14z m199 -65 c185 -84 190 -349 9 -444 -30 -15
-58 -21 -110 -21 -52 0 -80 6 -110 21 -145 76 -180 273 -68 388 50 52 105 75
178 75 37 0 76 -8 101 -19z"/>
<path d="M2300 2681 c-139 -46 -224 -158 -224 -296 0 -119 60 -215 169 -273
42 -22 63 -27 130 -27 68 0 89 4 137 28 61 30 105 74 140 140 19 35 23 58 23
132 0 74 -4 97 -23 132 -56 106 -144 163 -260 169 -37 2 -78 0 -92 -5z m208
-88 c68 -42 105 -107 110 -194 4 -59 0 -77 -23 -124 -99 -203 -402 -166 -455
56 -22 91 21 206 95 255 81 53 194 56 273 7z"/>
<path d="M1245 1651 c-137 -36 -224 -139 -233 -277 -8 -128 50 -233 162 -292
43 -23 64 -27 136 -27 68 0 94 4 131 23 228 112 231 436 6 547 -56 27 -152 39
-202 26z m139 -65 c92 -28 148 -91 167 -188 39 -194 -165 -350 -346 -264 -60
28 -87 56 -114 116 -25 55 -27 145 -5 198 18 44 67 97 109 119 67 35 117 40
189 19z"/>
</g>
</svg>
